<svg width="32" height="32" viewBox="0 0 32 32" fill="none" xmlns="http://www.w3.org/2000/svg">
<rect width="32" height="32" rx="5" fill="#1A1E27"/>
<path d="M9 9C9 8.46875 9.4375 8 10 8C10.5312 8 11 8.46875 11 9C11 9.5625 10.5312 10 10 10C9.4375 10 9 9.5625 9 9ZM22 13C22 12.4688 22.4375 12 23 12C23.5312 12 24 12.4688 24 13C24 13.5625 23.5312 14 23 14C22.4375 14 22 13.5625 22 13ZM23 21C23.5312 21 24 21.4688 24 22C24 22.5625 23.5312 23 23 23C22.4375 23 22 22.5625 22 22C22 21.4688 22.4375 21 23 21ZM13.2188 12.7812C12.9062 12.5 12.9062 12.0312 13.2188 11.75L13.4688 11.4688C14 10.9688 14.3125 10.2812 14.4062 9.53125L14.5 8.6875C14.5312 8.28125 14.9062 7.96875 15.3125 8.03125C15.7188 8.0625 16.0312 8.4375 15.9688 8.84375L15.875 9.6875C15.7812 10.7812 15.2812 11.7812 14.5312 12.5312L14.2812 12.7812C13.9688 13.0938 13.5 13.0938 13.2188 12.7812ZM19.2188 17.7188L19.4688 17.4688C20.2188 16.7188 21.2188 16.2188 22.2812 16.125L23.1562 16.0312C23.5625 15.9688 23.9375 16.2812 23.9688 16.6875C24.0312 17.0938 23.7188 17.4688 23.3125 17.5L22.4688 17.5938C21.7188 17.6875 21.0312 18 20.5312 18.5312L20.2812 18.7812C19.9688 19.0938 19.5 19.0938 19.2188 18.7812C18.9062 18.5 18.9062 18.0312 19.2188 17.75V17.7188ZM23.8125 8.28125C24.0625 8.59375 24.0312 9.0625 23.7188 9.34375L23.4062 9.59375C22.9375 10 22.3438 10.1875 21.75 10.1875C21.2188 10.1562 20.7812 10.5625 20.75 11.0938L20.7188 12.0312C20.625 13.3438 19.5 14.375 18.1875 14.3438C17.9375 14.3438 17.7188 14.4062 17.5312 14.5625L17.2188 14.8438C16.9062 15.0938 16.4375 15.0625 16.1562 14.75C15.9062 14.4375 15.9375 13.9688 16.25 13.6875L16.5625 13.4375C17.0312 13.0312 17.625 12.8438 18.2188 12.8438C18.75 12.875 19.1875 12.4688 19.2188 11.9375L19.2812 11C19.3438 9.6875 20.4688 8.65625 21.7812 8.6875C22.0312 8.6875 22.25 8.625 22.4375 8.46875L22.75 8.1875C23.0625 7.9375 23.5312 7.96875 23.8125 8.28125ZM12.6875 14.3125L17.6875 19.3125C17.9375 19.5625 18.0312 19.9062 17.9688 20.2188C17.875 20.5625 17.6562 20.8438 17.3438 20.9375L16.0938 21.4062L10.5938 15.9062L11.0625 14.6562C11.1562 14.3438 11.4375 14.125 11.7812 14.0312C12.0938 13.9688 12.4375 14.0625 12.6875 14.3125ZM9.5 18.8125L10.1875 16.9375L15.0625 21.8125L13.1875 22.5L9.5 18.8125ZM9.09375 19.8438L12.1562 22.9062L9.34375 23.9375C8.96875 24.0938 8.5625 24 8.28125 23.7188C8 23.4375 7.90625 23.0312 8.0625 22.6562L9.09375 19.8438Z" fill="#FFF4E6"/>
</svg>
